<?xml version="1.0" encoding="UTF-8"?>
<svg id="Layer_2" data-name="Layer 2" xmlns="http://www.w3.org/2000/svg" viewBox="0 0 658.39 112.65">
  <defs>
    <style>
      .cls-1 {
        fill: #0a55cc;
      }

      .cls-2 {
        fill: #3d7bf5;
      }
    </style>
  </defs>
  <g id="Layer_1-2" data-name="Layer 1">
    <g>
      <g>
        <path d="M178.5,23.85l30.57,50.71h2.25V23.85h12.47v68.49h-19.01l-30.59-50.71h-2.25v50.71h-12.57V23.85h19.12Z"/>
        <path d="M293.05,23.85v11.04h-41.4v17.28h36.4v10.63h-36.4v18.5h41.93v11.04h-55.4V23.85h54.9-.02Z"/>
        <path d="M317.63,23.85l17.69,24.33h4.19l17.28-24.33h14.41l-23.81,33.73,25.24,34.76h-15.75l-18.51-25.45h-4.39l-17.89,25.45h-14.41l24.54-34.76-24.33-33.73h15.75Z"/>
        <path d="M411.82,22.83c19.32,0,32.09,9.2,32.09,26.88v.91h-13.59v-.91c0-9.92-6.74-15.14-18.51-15.14h-2.35c-11.65,0-18.8,5.51-18.8,17.18v12.47c0,12.16,7.15,17.37,18.8,17.37h2.35c11.77,0,18.82-5.12,18.82-15.23v-.61h13.59v.61c0,17.89-13.09,26.99-32.41,26.99h-2.35c-19.01,0-32.41-9.2-32.41-29.13v-12.47c0-19.42,13.39-28.93,32.41-28.93h2.35Z"/>
        <path d="M512.57,23.85v11.04h-41.4v17.28h36.39v10.63h-36.39v18.5h41.92v11.04h-55.4V23.85h54.9-.02Z"/>
        <path d="M555.45,22.93c17.28,0,29.13,7.35,29.13,21.06v4.39h-13.18v-4.39c0-6.94-6.13-10.43-15.96-10.43h-1.73c-9.92,0-15.84,3.37-15.84,8.49v1.02c0,5.73,4.91,7.15,21.26,10.13,18.3,3.37,26.68,8.49,26.68,19.94v1.12c0,11.24-10.22,19.21-30.16,19.21h-1.73c-20.14,0-30.36-8.08-30.36-21.87v-4.39h13.18v4.39c0,8.17,6.03,11.24,17.28,11.24h1.64c10.95,0,16.87-2.96,16.87-8.38v-1.02c0-5.51-5.32-7.67-21.58-10.43-16.98-2.87-26.38-7.47-26.38-19.42v-1.23c0-12.18,11.15-19.42,29.13-19.42h1.73l.02-.02Z"/>
        <path d="M628.02,22.83c17.28,0,29.13,7.35,29.13,21.06v4.39h-13.18v-4.39c0-6.94-6.12-10.43-15.95-10.43h-1.73c-9.92,0-15.84,3.37-15.84,8.49v1.02c0,5.73,4.92,7.15,21.26,10.13,18.3,3.37,26.68,8.49,26.68,19.94v1.12c0,11.24-10.22,19.21-30.16,19.21h-1.73c-20.14,0-30.36-8.08-30.36-21.87v-4.39h13.18v4.39c0,8.17,6.03,11.24,17.28,11.24h1.64c10.95,0,16.87-2.96,16.87-8.38v-1.02c0-5.51-5.33-7.67-21.58-10.43-16.98-2.87-26.38-7.47-26.38-19.42v-1.23c0-12.18,11.15-19.42,29.13-19.42h1.73l.02-.02Z"/>
      </g>
      <g>
        <path class="cls-1" d="M129.5,43.64c4.83-7.87,3.04-18.29-4.42-24.03-7.8-5.99-18.9-4.74-25.15,2.71-.17.21-.34.41-.5.62-.06.07-.11.15-.17.22l-17.09,24.29-4.87-27.13,5.97-8.47c5.28-7.45,13.83-11.85,22.91-11.85,10.54,0,20.1,5.82,24.93,15.19,4.7,9.12,4.09,19.97-1.6,28.46Z"/>
        <g>
          <path class="cls-2" d="M53.25,34.5l3.02,16.72,1.15,6.46,6.42,35.88-.02.02,1.88,10.35h21.01l41.67-58.67.66-.96c.16-.21.3-.43.46-.64,4.83-7.88,3.03-18.3-4.44-24.05-7.79-5.98-18.9-4.74-25.15,2.72,1.6-1.72,3.87-2.73,6.25-2.73,4.65,0,6.81,3.19,7.52,4.58.71,1.38,2.08,5-.62,8.78l-.21.34-31.87,44.86-2.98-16.7-1.17-6.46-4.86-27.12-1.56-8.77-1.88-10.38h-21.01L5.86,67.4l-.66.96c-.16.21-.3.43-.46.64-4.83,7.88-3.03,18.3,4.44,24.05,7.79,5.98,18.9,4.74,25.15-2.72-1.6,1.72-3.87,2.73-6.25,2.73-4.65,0-6.81-3.19-7.52-4.58-.71-1.38-2.08-5,.62-8.78l.21-.34,31.87-44.86Z"/>
          <path class="cls-1" d="M4.74,69c-4.83,7.87-3.04,18.29,4.42,24.03,7.8,5.99,18.9,4.74,25.15-2.71.17-.21.34-.41.5-.62.06-.07.11-.15.17-.22l17.09-24.29,4.87,27.13-5.97,8.47c-5.28,7.45-13.83,11.85-22.91,11.85-10.54,0-20.1-5.82-24.93-15.19-4.7-9.12-4.09-19.97,1.6-28.46Z"/>
        </g>
      </g>
    </g>
  </g>
</svg>